<?xml version="1.0"?>
<svg xmlns="http://www.w3.org/2000/svg" height="512px" viewBox="0 -1 480.01924 480" width="512px" class=""><g><path d="m256 .0078125c-124 0-224 99.9999995-224 223.9999995v8.800782l-32 18.402344v153.597656l120 68.800781 120-68.800781v-153.597656l-120-68.800782-72 41.597656c0-27.199218 5.601562-54.398437 16-80h57.601562c2.398438 0 4 .800782 5.597657 2.402344l22.402343 22.398438c4.796876 4.800781 10.398438 7.199218 16.796876 7.199218h33.601562c13.601562 0 24-10.398437 24-24v-9.597656c0-6.402344-2.398438-12.800781-7.199219-16.800781l-14.402343-14.398437c-1.597657-1.601563-2.398438-3.203126-2.398438-5.601563v-26.398437c0-6.402344-2.398438-12.800782-7.199219-16.800782l-25.601562-25.601562c28-14.398438 58.402343-20.800782 88.800781-20.800782v65.601563c0 6.398437 2.398438 12.800781 7.199219 16.800781l22.402343 22.398438c1.597657 1.601562 2.398438 3.199218 2.398438 5.601562v26.398438c0 2.402344-.800781 4-2.398438 5.601562l-8 8c-9.601562 9.597656-9.601562 24.800782 0 33.597656l1.597657 1.601563c9.601562 9.601563 24.800781 9.601563 33.601562 0l24-24c1.597657-1.601563 3.199219-2.398437 5.597657-2.398437h17.601562c13.601562 0 24-10.402344 24-24v-49.601563c0-2.398437.800781-4 2.398438-5.601563l18.402343-18.398437c26.398438 27.199219 44.800781 60.800781 53.597657 97.601563h-36c-6.398438 0-12.796876 2.398437-16.796876 7.199218l-22.402343 22.398438c-4.800781 5.601562-7.199219 11.199218-7.199219 17.601562v9.597656c0 13.601563 10.398438 24 24 24h17.601562c6.398438 0 12.796876-2.398437 16.796876-7.199218l16.800781-16.800782h12.800781c-.800781 16-3.199219 32-7.199219 48h-90.402343c-2.398438 0-4-.796874-5.597657-2.398437l-38.402343-38.398437c-4.796876-4.800782-10.398438-7.203126-16.796876-7.203126h-9.601562c-13.601562 0-24 10.402344-24 24v17.601563c0 6.398437 2.398438 12.800781 7.199219 16.800781l14.402343 14.398438c1.597657 1.601562 2.398438 3.199218 2.398438 5.601562v18.398438c0 2.402344-.800781 4-2.398438 5.601562-9.601562 9.597656-9.601562 24.800782 0 33.597656 4.796876 4.800782 10.398438 7.203126 16.796876 7.203126h18.402343c2.398438 0 4 .796874 5.597657 2.398437l25.601562 25.601563c-30.398438 17.597656-65.601562 28-100.800781 28l18.402343-18.402344-11.203124-11.199219-37.597657 38.398437 37.597657 37.601563 11.203124-11.199219-18.402343-18.402344c124-1.597656 222.402343-103.199218 220.800781-227.199218-1.601562-122.398438-101.601562-220.8007815-224-220.8007815zm-240 269.6015625 88 50.398437v125.601563l-88-50.398437zm152 32 16-8.800781v46.402344l-16 8zm-48 8.800781-40-22.402344 96-54.398437 40 22.398437zm0 144v-124.800781l32-18.398437v62.398437l48-24v-65.601563l24-13.597656v125.597656zm40-230.402344-96 54.402344-40-22.402344 96-54.398437zm21.601562-151.199218c1.597657 1.601562 2.398438 3.199218 2.398438 5.601562v26.398438c0 6.402344 2.398438 12.800781 7.199219 16.800781l14.402343 14.398437c1.597657 1.601563 2.398438 3.203126 2.398438 5.601563v10.398437c0 4.800782-3.199219 8-8 8h-33.601562c-2.398438 0-4-.796874-5.597657-2.398437l-22.402343-22.398437c-4.796876-4.800782-10.398438-7.203126-16.796876-7.203126h-49.601562c18.398438-35.199218 46.398438-64.796874 80.800781-84zm193.597657 12.800781c-4.800781 4.800781-7.199219 10.398437-7.199219 16.800781v49.597656c0 4.800782-3.199219 8-8 8h-17.601562c-6.398438 0-12.796876 2.402344-16.796876 7.203126l-24 24c-3.203124 3.199218-8 3.199218-11.203124 0l-1.597657-1.601563c-3.199219-3.199219-3.199219-8 0-11.199219l8-8c4.800781-4.800781 7.199219-10.402344 7.199219-16.800781v-26.398437c0-6.402344-2.398438-12.800782-7.199219-16.800782l-22.402343-22.402344c-1.597657-1.597656-2.398438-3.199218-2.398438-5.597656v-65.601562c44.800781 3.199218 87.199219 21.601562 120.800781 51.199218zm69.601562 130.398437-21.601562 21.601563c-1.597657 1.601563-3.199219 2.398437-5.597657 2.398437h-17.601562c-4.800781 0-8-3.199218-8-8v-9.597656c0-2.402344.800781-4 2.398438-5.601562l22.402343-22.398438c1.597657-1.601562 3.199219-2.402344 5.597657-2.402344h39.203124c1.597657 8 1.597657 16 2.398438 24zm-70.402343 179.203126-28-28c-4.796876-4.800782-10.398438-7.203126-16.796876-7.203126h-18.402343c-4.800781 0-8-3.199218-8-8 0-2.398437.800781-4 2.402343-5.597656 4.796876-4.800781 7.199219-10.402344 7.199219-16.800781v-18.398437c0-6.402344-2.402343-12.800782-7.199219-16.800782l-14.402343-14.402344c-1.597657-1.597656-2.398438-3.199218-2.398438-5.597656v-18.402344c0-4.796874 3.199219-8 8-8h9.597657c2.402343 0 4 .800782 5.601562 2.402344l38.398438 38.398438c4.800781 4.800781 10.402343 7.199218 16.800781 7.199218h84.800781c-16 40-42.398438 74.402344-77.601562 99.203126zm0 0" data-original="#000000" class="active-path" data-old_color="#ff1f70" fill="#ff1f70"/></g> </svg>
